<?xml version="1.0" standalone="no"?>
<!DOCTYPE svg PUBLIC "-//W3C//DTD SVG 20010904//EN"
 "http://www.w3.org/TR/2001/REC-SVG-20010904/DTD/svg10.dtd">
<svg version="1.0" xmlns="http://www.w3.org/2000/svg"
 width="533.000000pt" height="533.000000pt" viewBox="0 0 533.000000 533.000000"
 preserveAspectRatio="xMidYMid meet">
<metadata>
Created by potrace 1.14, written by Peter Selinger 2001-2017
</metadata>
<g transform="translate(0.000000,533.000000) scale(0.100000,-0.100000)"
fill="#000000" stroke="none">
<path d="M923 4763 c-93 -281 -146 -491 -187 -743 -50 -307 -60 -490 -51 -963
4 -227 8 -452 8 -502 1 -59 -5 -116 -18 -165 -15 -62 -19 -109 -18 -275 0
-140 5 -217 15 -255 l14 -55 32 63 c34 66 52 78 52 37 0 -46 41 -216 77 -319
78 -224 182 -405 338 -588 22 -27 43 -48 47 -48 4 0 12 26 19 58 7 31 14 59
16 61 2 3 40 -31 86 -75 91 -89 208 -180 310 -243 67 -41 261 -141 273 -141 4
0 4 22 0 50 -4 27 -4 50 -2 50 3 0 38 -13 78 -29 186 -74 409 -125 592 -137
58 -4 106 -5 106 -2 0 3 -31 28 -69 56 -216 161 -364 424 -390 694 -36 366
133 749 419 955 242 174 550 302 848 353 166 28 224 45 327 94 188 91 348 240
476 447 55 88 141 268 134 279 -2 4 -31 10 -64 13 -93 10 -252 45 -343 76
-223 76 -345 160 -500 342 -216 255 -435 360 -839 404 l-57 6 -22 62 c-66 181
-217 410 -350 531 -39 35 -41 36 -69 21 -58 -30 -181 -138 -239 -209 -61 -75
-141 -220 -163 -294 -7 -23 -15 -41 -19 -40 -4 2 -31 32 -61 68 -124 151 -249
265 -412 373 -89 60 -304 177 -324 177 -5 0 -36 -84 -70 -187z"/>
<path d="M4516 3133 c-126 -256 -307 -450 -526 -562 -103 -53 -196 -84 -391
-130 -273 -65 -453 -139 -619 -256 -83 -58 -265 -224 -256 -233 3 -2 24 3 48
13 42 17 189 45 236 45 12 0 22 -4 22 -10 0 -5 -8 -10 -18 -10 -30 0 -157 -46
-209 -76 -142 -81 -266 -224 -313 -358 -28 -82 -44 -217 -36 -317 17 -251 147
-430 378 -519 106 -41 240 -57 355 -43 48 6 90 9 92 7 9 -8 -128 -65 -183 -76
-53 -10 -57 -12 -35 -21 13 -5 69 -6 124 -2 329 21 588 134 788 344 97 103
151 197 183 321 l21 85 8 -48 c4 -27 5 -82 3 -123 -3 -41 -4 -74 -2 -74 1 0
37 39 79 87 208 237 355 537 411 838 27 143 27 557 0 730 -21 137 -76 365
-103 426 l-18 41 -39 -79z"/>
</g>
</svg>
